<svg width="67" height="102" viewBox="0 0 0" fill="none" xmlns="http://www.w3.org/2000/svg">
<path fill-rule="evenodd" clip-rule="evenodd" d="M33.5019 93.1212L7.78375 78.2743L0 82.7679L33.5019 102.112V93.1212ZM33.5019 75.6045L22.9516 69.5159L15.1678 74.0096L33.5019 84.5956V75.6045Z" fill="#2E3192"/>
<path fill-rule="evenodd" clip-rule="evenodd" d="M33.5019 93.1211L59.2163 78.2742L67 82.7678L33.5019 102.112V93.1211ZM7.78375 48.5765V78.2742L0 82.7678V44.0828L7.78375 48.5765Z" fill="#3559B0"/>
<path fill-rule="evenodd" clip-rule="evenodd" d="M15.1678 44.3118L7.78375 48.5765L0 44.0829L15.1678 35.3245V12.7359L22.9516 17.2296V69.5159L15.1678 74.0095V44.3118ZM59.2163 48.5765V78.2742L67 82.7679V44.0829L59.2163 48.5765Z" fill="#00ADEF"/>
<path fill-rule="evenodd" clip-rule="evenodd" d="M51.8322 44.3117L59.2162 48.5764L67 44.0828L51.8322 35.3244V44.3117ZM33.5019 75.6043L44.0484 69.5158L51.8322 74.0094L33.5019 84.5955V75.6043Z" fill="#5CB5E8"/>
<path fill-rule="evenodd" clip-rule="evenodd" d="M37.2271 0V65.9613L33.5021 68.1111L29.4395 65.7672V4.49365L37.2271 0ZM44.0486 19.8334V69.5158L51.8324 74.0095V24.327L44.0486 19.8334Z" fill="#99DEF9"/>
</svg>
